<svg width="150" height="145" viewBox="0 0 150 145" fill="none" xmlns="http://www.w3.org/2000/svg">
<ellipse cx="74.8856" cy="71.6568" rx="64.8571" ry="64.5987" stroke="#FCE300" stroke-width="8"/>
<path d="M139.743 71.6568C139.743 35.9799 110.705 7.05811 74.8857 7.05811" stroke="#2AE881" stroke-width="8"/>
<circle cx="44.7708" cy="67.0117" r="2.82619" fill="#2AE881"/>
<path d="M51.3772 69.5117V69.0879L53.0452 67.2832C53.6741 66.603 53.8586 66.3467 53.8586 65.916V65.9092C53.8586 65.3896 53.5066 65 52.9255 65C52.3342 65 51.9412 65.3862 51.9412 65.9673L51.9377 65.9741L51.3499 65.9707L51.343 65.9673C51.3464 65.0923 52.0232 64.4634 52.9666 64.4634C53.8279 64.4634 54.4875 65.0479 54.4875 65.8442V65.8511C54.4875 66.415 54.2449 66.8252 53.3528 67.7446L52.2317 68.9033V68.958H54.5696V69.5117H51.3772ZM57.2527 69.6279C56.1624 69.6279 55.5129 68.6333 55.5129 67.0474V67.0405C55.5129 65.4546 56.1624 64.4634 57.2527 64.4634C58.343 64.4634 58.9993 65.4546 58.9993 67.0405V67.0474C58.9993 68.6333 58.343 69.6279 57.2527 69.6279ZM57.2527 69.0913C57.9602 69.0913 58.3806 68.3052 58.3806 67.0474V67.0405C58.3806 65.7827 57.9602 65.0034 57.2527 65.0034C56.5452 65.0034 56.1316 65.7827 56.1316 67.0405V67.0474C56.1316 68.3052 56.5452 69.0913 57.2527 69.0913ZM60.9304 67.1738C60.3015 67.1738 59.9221 66.6611 59.9221 65.8442V65.8408C59.9221 65.0239 60.3015 64.5146 60.9304 64.5146C61.5593 64.5146 61.9421 65.0239 61.9421 65.8408V65.8442C61.9421 66.6611 61.5593 67.1738 60.9304 67.1738ZM61.2996 69.5117H60.7458L64.1023 64.5796H64.656L61.2996 69.5117ZM60.9304 66.7671C61.2688 66.7671 61.467 66.4219 61.467 65.8442V65.8408C61.467 65.2632 61.2688 64.9214 60.9304 64.9214C60.592 64.9214 60.3972 65.2632 60.3972 65.8408V65.8442C60.3972 66.4219 60.592 66.7671 60.9304 66.7671ZM64.4646 69.5767C63.8357 69.5767 63.4563 69.064 63.4563 68.2471V68.2437C63.4563 67.4268 63.8357 66.9175 64.4646 66.9175C65.0935 66.9175 65.4763 67.4268 65.4763 68.2437V68.2471C65.4763 69.064 65.0935 69.5767 64.4646 69.5767ZM64.4646 69.1699C64.803 69.1699 65.0012 68.8247 65.0012 68.2471V68.2437C65.0012 67.666 64.803 67.3242 64.4646 67.3242C64.1262 67.3242 63.9314 67.666 63.9314 68.2437V68.2471C63.9314 68.8247 64.1262 69.1699 64.4646 69.1699ZM68.573 69.5117V64.5796H70.4324C71.3586 64.5796 72.0149 65.2188 72.0149 66.1553V66.1621C72.0149 67.0986 71.3586 67.7515 70.4324 67.7515H69.1882V69.5117H68.573ZM70.2751 65.1265H69.1882V67.2046H70.2751C70.9792 67.2046 71.386 66.8184 71.386 66.1689V66.1621C71.386 65.5127 70.9792 65.1265 70.2751 65.1265ZM74.4519 69.5767C73.3992 69.5767 72.7634 68.8384 72.7634 67.6831V67.6797C72.7634 66.5415 73.4128 65.7622 74.4143 65.7622C75.4158 65.7622 76.0242 66.5073 76.0242 67.6079V67.8403H73.3718C73.3889 68.6025 73.8093 69.0469 74.4656 69.0469C74.9646 69.0469 75.2722 68.811 75.3713 68.5889L75.385 68.5581H75.9797L75.9729 68.5854C75.8464 69.0845 75.3201 69.5767 74.4519 69.5767ZM74.4109 66.292C73.864 66.292 73.447 66.6646 73.3821 67.3652H75.4192C75.3577 66.6372 74.9543 66.292 74.4109 66.292ZM77.6067 69.5117H77.012V65.8271H77.7332L79.0457 68.6846H79.1003L80.4197 65.8271H81.1101V69.5117H80.5154V66.8901H80.4504L79.2883 69.4092H78.8303L77.6716 66.8901H77.6067V69.5117ZM83.8 69.5767C82.7507 69.5767 82.1013 68.8521 82.1013 67.6729V67.666C82.1013 66.4834 82.7507 65.7622 83.8 65.7622C84.8494 65.7622 85.4988 66.4834 85.4988 67.666V67.6729C85.4988 68.8521 84.8494 69.5767 83.8 69.5767ZM83.8 69.0503C84.4973 69.0503 84.8904 68.541 84.8904 67.6729V67.666C84.8904 66.7944 84.4973 66.2886 83.8 66.2886C83.1028 66.2886 82.7097 66.7944 82.7097 67.666V67.6729C82.7097 68.541 83.1028 69.0503 83.8 69.0503ZM88.9065 69.5117V67.8438H87.0813V69.5117H86.4866V65.8271H87.0813V67.3516H88.9065V65.8271H89.5012V69.5117H88.9065ZM93.3396 65.8271V66.3193H92.1467V69.5117H91.552V66.3193H90.3591V65.8271H93.3396ZM96.949 67.8335H96.761V69.5117H96.1663V65.8271H96.761V67.3687H96.949L98.3743 65.8271H99.0886L97.4309 67.5635L99.1536 69.5117H98.3914L96.949 67.8335ZM99.9739 69.5117V65.8271H101.536C102.233 65.8271 102.64 66.2065 102.64 66.7842V66.791C102.64 67.1567 102.384 67.502 102.038 67.5737V67.6284C102.507 67.6934 102.804 68.0215 102.804 68.4487V68.4556C102.804 69.0947 102.336 69.5117 101.543 69.5117H99.9739ZM100.569 67.3857H101.355C101.833 67.3857 102.049 67.2012 102.049 66.8525V66.8457C102.049 66.5312 101.864 66.3193 101.45 66.3193H100.569V67.3857ZM100.569 69.0195H101.519C101.97 69.0195 102.199 68.8145 102.199 68.4453V68.4385C102.199 68.0488 101.936 67.8779 101.406 67.8779H100.569V69.0195ZM104.824 69.5767C104.123 69.5767 103.594 69.1528 103.594 68.4829V68.4761C103.594 67.8198 104.079 67.4404 104.937 67.3892L105.993 67.3242V66.9893C105.993 66.5347 105.716 66.2886 105.166 66.2886C104.725 66.2886 104.434 66.4526 104.339 66.7397L104.335 66.75H103.74L103.744 66.7295C103.84 66.1519 104.4 65.7622 105.186 65.7622C106.085 65.7622 106.588 66.2236 106.588 66.9893V69.5117H105.993V68.9683H105.938C105.706 69.3613 105.32 69.5767 104.824 69.5767ZM104.202 68.4692C104.202 68.8418 104.52 69.0605 104.947 69.0605C105.552 69.0605 105.993 68.6641 105.993 68.1377V67.8027L105.009 67.8643C104.448 67.8984 104.202 68.0967 104.202 68.4624V68.4692ZM107.743 70.7422V65.8271H108.338V66.415H108.392C108.618 66.0049 109.028 65.7622 109.541 65.7622C110.474 65.7622 111.086 66.5176 111.086 67.666V67.6729C111.086 68.8281 110.477 69.5767 109.541 69.5767C109.035 69.5767 108.594 69.3237 108.392 68.9307H108.338V70.7422H107.743ZM109.404 69.0503C110.077 69.0503 110.477 68.5308 110.477 67.6729V67.666C110.477 66.8081 110.077 66.2886 109.404 66.2886C108.734 66.2886 108.324 66.8149 108.324 67.666V67.6729C108.324 68.5239 108.734 69.0503 109.404 69.0503ZM114.51 65.8271V66.3193H113.318V69.5117H112.723V66.3193H111.53V65.8271H114.51ZM115.368 69.5117V65.8271H115.963V68.5752H116.018L117.84 65.8271H118.434V69.5117H117.84V66.7637H117.785L115.963 69.5117H115.368ZM119.61 70.7422V65.8271H120.205V66.415H120.26C120.485 66.0049 120.895 65.7622 121.408 65.7622C122.341 65.7622 122.953 66.5176 122.953 67.666V67.6729C122.953 68.8281 122.344 69.5767 121.408 69.5767C120.902 69.5767 120.461 69.3237 120.26 68.9307H120.205V70.7422H119.61ZM121.271 69.0503C121.945 69.0503 122.344 68.5308 122.344 67.6729V67.666C122.344 66.8081 121.945 66.2886 121.271 66.2886C120.601 66.2886 120.191 66.8149 120.191 67.666V67.6729C120.191 68.5239 120.601 69.0503 121.271 69.0503ZM123.948 69.5117V65.8271H124.542V67.0098H125.263C126.108 67.0098 126.648 67.4951 126.648 68.2573V68.2642C126.648 69.0264 126.108 69.5117 125.263 69.5117H123.948ZM127.29 69.5117V65.8271H127.885V69.5117H127.29ZM125.263 67.502H124.542V69.0195H125.263C125.749 69.0195 126.053 68.7188 126.053 68.2642V68.2573C126.053 67.7993 125.745 67.502 125.263 67.502Z" fill="black"/>
<circle cx="44.7708" cy="76.3025" r="2.82619" fill="#FCE300"/>
<path d="M53.0623 78.8845C52.0164 78.8845 51.2712 78.2966 51.2712 77.4695V77.4626C51.2712 76.8542 51.6985 76.3484 52.3308 76.2014V76.1877C51.7908 76.0203 51.449 75.6101 51.449 75.0906V75.0837C51.449 74.3386 52.1292 73.7883 53.0623 73.7883C53.9954 73.7883 54.6755 74.3386 54.6755 75.0837V75.0906C54.6755 75.6101 54.3337 76.0203 53.7937 76.1877V76.2014C54.426 76.3484 54.8533 76.8542 54.8533 77.4626V77.4695C54.8533 78.2966 54.1082 78.8845 53.0623 78.8845ZM53.0623 75.9587C53.657 75.9587 54.0637 75.6204 54.0637 75.1418V75.135C54.0637 74.6565 53.657 74.3181 53.0623 74.3181C52.4675 74.3181 52.0608 74.6565 52.0608 75.135V75.1418C52.0608 75.6204 52.4675 75.9587 53.0623 75.9587ZM53.0623 78.3479C53.7424 78.3479 54.2278 77.9651 54.2278 77.4319V77.425C54.2278 76.885 53.7458 76.4988 53.0623 76.4988C52.3787 76.4988 51.8967 76.885 51.8967 77.425V77.4319C51.8967 77.9651 52.3821 78.3479 53.0623 78.3479ZM57.4988 78.9187C56.4084 78.9187 55.759 77.9241 55.759 76.3381V76.3313C55.759 74.7454 56.4084 73.7542 57.4988 73.7542C58.5891 73.7542 59.2454 74.7454 59.2454 76.3313V76.3381C59.2454 77.9241 58.5891 78.9187 57.4988 78.9187ZM57.4988 78.3821C58.2063 78.3821 58.6267 77.5959 58.6267 76.3381V76.3313C58.6267 75.0735 58.2063 74.2942 57.4988 74.2942C56.7913 74.2942 56.3777 75.0735 56.3777 76.3313V76.3381C56.3777 77.5959 56.7913 78.3821 57.4988 78.3821ZM61.1765 76.4646C60.5476 76.4646 60.1682 75.9519 60.1682 75.135V75.1316C60.1682 74.3147 60.5476 73.8054 61.1765 73.8054C61.8054 73.8054 62.1882 74.3147 62.1882 75.1316V75.135C62.1882 75.9519 61.8054 76.4646 61.1765 76.4646ZM61.5457 78.8025H60.9919L64.3484 73.8704H64.9021L61.5457 78.8025ZM61.1765 76.0579C61.5149 76.0579 61.7131 75.7126 61.7131 75.135V75.1316C61.7131 74.554 61.5149 74.2122 61.1765 74.2122C60.8381 74.2122 60.6433 74.554 60.6433 75.1316V75.135C60.6433 75.7126 60.8381 76.0579 61.1765 76.0579ZM64.7107 78.8674C64.0818 78.8674 63.7024 78.3547 63.7024 77.5378V77.5344C63.7024 76.7175 64.0818 76.2083 64.7107 76.2083C65.3396 76.2083 65.7224 76.7175 65.7224 77.5344V77.5378C65.7224 78.3547 65.3396 78.8674 64.7107 78.8674ZM64.7107 78.4607C65.0491 78.4607 65.2473 78.1155 65.2473 77.5378V77.5344C65.2473 76.9568 65.0491 76.615 64.7107 76.615C64.3723 76.615 64.1775 76.9568 64.1775 77.5344V77.5378C64.1775 78.1155 64.3723 78.4607 64.7107 78.4607ZM68.8191 78.8025V73.8704H69.4343V76.0032H72.1414V73.8704H72.7566V78.8025H72.1414V76.5569H69.4343V78.8025H68.8191ZM75.0193 78.8674C74.3186 78.8674 73.7888 78.4436 73.7888 77.7737V77.7668C73.7888 77.1106 74.2742 76.7312 75.1321 76.6799L76.1882 76.615V76.28C76.1882 75.8254 75.9114 75.5793 75.3611 75.5793C74.9202 75.5793 74.6296 75.7434 74.5339 76.0305L74.5305 76.0408H73.9358L73.9392 76.0203C74.0349 75.4426 74.5955 75.053 75.3816 75.053C76.2805 75.053 76.783 75.5144 76.783 76.28V78.8025H76.1882V78.259H76.1335C75.9011 78.6521 75.5149 78.8674 75.0193 78.8674ZM74.3972 77.76C74.3972 78.1326 74.7151 78.3513 75.1423 78.3513C75.7473 78.3513 76.1882 77.9548 76.1882 77.4285V77.0935L75.2039 77.155C74.6433 77.1892 74.3972 77.3875 74.3972 77.7532V77.76ZM81.4143 78.8674C80.3821 78.8674 79.7224 78.1189 79.7224 76.95V76.9431C79.7224 75.7981 80.3787 75.053 81.4109 75.053C82.3064 75.053 82.843 75.5691 82.9524 76.2253L82.9558 76.2458H82.3645L82.3611 76.2356C82.2688 75.8733 81.9407 75.5793 81.4109 75.5793C80.7478 75.5793 80.3308 76.1125 80.3308 76.9431V76.95C80.3308 77.7976 80.7546 78.3411 81.4109 78.3411C81.9065 78.3411 82.2209 78.1223 82.3577 77.7122L82.3645 77.6917L82.9524 77.6882L82.9456 77.7258C82.7952 78.3923 82.2996 78.8674 81.4143 78.8674ZM85.4065 78.8674C84.3572 78.8674 83.7078 78.1428 83.7078 76.9636V76.9568C83.7078 75.7742 84.3572 75.053 85.4065 75.053C86.4558 75.053 87.1052 75.7742 87.1052 76.9568V76.9636C87.1052 78.1428 86.4558 78.8674 85.4065 78.8674ZM85.4065 78.3411C86.1038 78.3411 86.4968 77.8318 86.4968 76.9636V76.9568C86.4968 76.0852 86.1038 75.5793 85.4065 75.5793C84.7092 75.5793 84.3162 76.0852 84.3162 76.9568V76.9636C84.3162 77.8318 84.7092 78.3411 85.4065 78.3411ZM89.6277 78.8708C88.4998 78.8708 87.9119 78.1018 87.9119 76.6252V76.6184C87.9119 74.6633 88.4553 73.8293 89.7712 73.7678L90.1404 73.7507C90.4343 73.7371 90.783 73.6824 91.1008 73.5525V74.0789C90.9846 74.1882 90.595 74.2771 90.1677 74.2976L89.7917 74.3147C88.9338 74.3523 88.5613 74.7522 88.4246 75.7571L88.4143 75.8323H88.469C88.7185 75.3914 89.1594 75.1521 89.7166 75.1521C90.7078 75.1521 91.3435 75.8596 91.3435 76.9705V76.9773C91.3435 78.1462 90.6907 78.8708 89.6277 78.8708ZM89.6277 78.3445C90.3318 78.3445 90.7351 77.842 90.7351 76.9773V76.9705C90.7351 76.1467 90.3318 75.6785 89.6277 75.6785C88.9236 75.6785 88.5203 76.1467 88.5203 76.9705V76.9773C88.5203 77.842 88.9236 78.3445 89.6277 78.3445ZM93.3464 78.8674C92.6458 78.8674 92.116 78.4436 92.116 77.7737V77.7668C92.116 77.1106 92.6013 76.7312 93.4592 76.6799L94.5154 76.615V76.28C94.5154 75.8254 94.2385 75.5793 93.6882 75.5793C93.2473 75.5793 92.9568 75.7434 92.8611 76.0305L92.8577 76.0408H92.2629L92.2664 76.0203C92.3621 75.4426 92.9226 75.053 93.7087 75.053C94.6077 75.053 95.1101 75.5144 95.1101 76.28V78.8025H94.5154V78.259H94.4607C94.2283 78.6521 93.842 78.8674 93.3464 78.8674ZM92.7244 77.76C92.7244 78.1326 93.0422 78.3513 93.4695 78.3513C94.0745 78.3513 94.5154 77.9548 94.5154 77.4285V77.0935L93.531 77.155C92.9705 77.1892 92.7244 77.3875 92.7244 77.7532V77.76ZM99.0715 78.8025H98.4768V77.2678H98.4221C98.2239 77.408 97.9402 77.49 97.5437 77.49C96.655 77.49 96.1936 76.9568 96.1936 76.1707V75.1179H96.7883V76.1707C96.7883 76.656 97.0413 76.9636 97.5437 76.9636C98.0051 76.9636 98.323 76.844 98.4768 76.6731V75.1179H99.0715V78.8025ZM101.023 77.1243H100.835V78.8025H100.24V75.1179H100.835V76.6594H101.023L102.448 75.1179H103.163L101.505 76.8542L103.228 78.8025H102.466L101.023 77.1243ZM104.229 80.0945C104.151 80.0945 104.048 80.0876 103.966 80.074V79.5852C104.038 79.5989 104.13 79.6023 104.212 79.6023C104.551 79.6023 104.756 79.4485 104.889 79.0247L104.957 78.8059L103.594 75.1179H104.229L105.241 78.1497H105.296L106.304 75.1179H106.929L105.49 79.0281C105.186 79.8552 104.882 80.0945 104.229 80.0945Z" fill="black"/>
</svg>
